PathFileType	4	(X/Y/Z)	F:\MotionCapture\20160217\3\Generated_files\2_Test05-Dynamic.trc
DataRate	CameraRate	NumFrames	NumMarkers	Units	OrigDataRate	OrigDataStartFrame	OrigNumFrames
120.00	120.00	       4	39	mm	120.00	441	       704
Frame#	Time	Top.Head			Front.Head			Rear.Head			R.Shoulder			R.Offset			R.Elbow			R.Wrist			L.Shoulder			L.Elbow			L.Wrist			R.ASIS			L.ASIS			V.Sacral			R.Thigh			R.Knee			R.Shank			R.Ankle			R.Heel			R.Toe			L.Thigh			L.Knee			L.Shank			L.Ankle			L.Heel			L.Toe			R1			R2			R3			R4			R5			R6			R7			L1			L2			L3			L4			L5			L6			L7			V_Mid_ASIS			V_Pelvis_Origin			V_R.Hip_JC			V_L.Hip_JC			V_R.Knee_JC			V_L.Knee_JC			V_R.Ankle_JC			V_L.Ankle_JC			V_Mid_Hip			V_Mid_Shoulder			V_R.Hand			V_L.Hand			V_R.Toe_Offset_Static			V_L.Toe_Offset_Static			V_R.Toe_Offset			V_L.Toe_Offset			
		X1	Y1	Z1	X2	Y2	Z2	X3	Y3	Z3	X4	Y4	Z4	X5	Y5	Z5	X6	Y6	Z6	X7	Y7	Z7	X8	Y8	Z8	X9	Y9	Z9	X10	Y10	Z10	X11	Y11	Z11	X12	Y12	Z12	X13	Y13	Z13	X14	Y14	Z14	X15	Y15	Z15	X16	Y16	Z16	X17	Y17	Z17	X18	Y18	Z18	X19	Y19	Z19	X20	Y20	Z20	X21	Y21	Z21	X22	Y22	Z22	X23	Y23	Z23	X24	Y24	Z24	X25	Y25	Z25	X26	Y26	Z26	X27	Y27	Z27	X28	Y28	Z28	X29	Y29	Z29	X30	Y30	Z30	X31	Y31	Z31	X32	Y32	Z32	X33	Y33	Z33	X34	Y34	Z34	X35	Y35	Z35	X36	Y36	Z36	X37	Y37	Z37	X38	Y38	Z38	X39	Y39	Z39	

441	3.667	-521.07605	155.44513	1708.61230	-646.49695	152.80968	1648.36450	-427.79877	148.95979	1619.66528	-508.91437	345.57880	1399.55786	-388.85730	71.06528	1259.70874	-410.79028	452.89301	1099.69019	-456.03937	484.76157	841.87714	-553.38794	-59.72712	1402.66077	-605.66486	-174.76988	1090.01257	-799.88733	-153.76599	923.18457	-582.74158	276.68723	926.59528	-576.94269	-9.54748	930.15192	-354.13885	141.20897	926.55872	-762.65814	258.13373	636.23126	-732.42218	301.21173	496.69440	-760.76758	214.74979	269.53336	-722.39966	274.96533	90.86453	-656.96710	210.12135	66.35754	-857.73346	252.47102	80.09395	-556.94348	45.63181	590.09222	-428.93613	-1.01695	448.53799	-410.59427	78.69093	310.56763	-295.14587	24.61045	61.80521	-223.77995	81.31118	51.67783	-425.52133	21.25628	37.33483	-899.71643	240.03313	92.86657	-865.27246	217.29868	88.24469	-772.73346	186.44159	96.02245	-701.16064	181.88556	75.65462	-688.09644	254.96533	64.55224	-766.05927	282.01175	59.64821	-828.90814	290.26196	61.64857	-473.14893	43.07458	32.34007	-440.16733	60.62349	41.54904	-345.64746	108.62122	43.29873	-262.30484	111.83048	46.61812	-250.49956	40.25195	47.52729	-320.30026	8.42939	33.05122	-381.89655	-9.23788	36.36017																																																	-522.92896	90.68596	-3.29086	-777.08911	107.26428	7.77979	
442	3.675	-534.13623	155.75934	1705.71082	-659.02069	153.51811	1645.40222	-440.47562	149.30023	1617.02502	-521.21631	346.30374	1397.07642	-401.11783	71.41598	1257.27319	-420.02295	452.80838	1097.88525	-462.66016	485.39099	839.60260	-566.46802	-58.94949	1399.52673	-621.68750	-174.02867	1087.47925	-818.65900	-150.87236	924.33484	-595.39514	276.93442	923.18890	-588.83997	-9.34322	927.79791	-366.92218	142.09933	924.15173	-774.88354	257.48581	632.89032	-745.99976	300.10022	494.00760	-786.91711	215.67345	268.58646	-753.31348	282.53232	86.72128	-694.45935	214.21410	59.14503	-894.55316	255.23457	84.19997	-564.40863	44.74936	587.42877	-433.82831	-1.26526	447.82330	-414.20093	78.39809	309.86737	-295.28720	25.17374	62.58945	-223.94337	82.39815	53.02034	-425.71362	21.06733	37.51617	-934.98322	240.85873	100.78518	-900.47809	219.64343	93.32928	-807.44208	189.54123	95.44415	-737.19751	185.48659	71.08633	-725.73523	259.22473	60.13232	-804.12128	285.80368	59.94436	-866.54712	293.15839	66.32701	-472.92996	42.53016	32.01481	-440.36615	60.41265	41.50568	-346.29599	108.70701	43.76700	-262.94003	112.40079	47.62592	-251.41701	40.61659	48.76365	-320.60895	8.90999	33.23203	-381.88071	-9.22615	36.26606																																																	-820.62439	117.80659	18.49569	
443	3.683	-546.84790	156.21132	1702.79956	-671.85815	154.20476	1642.56641	-453.00027	149.95444	1614.04700	-533.46204	346.87921	1394.41614	-413.71448	72.20644	1254.25220	-429.49973	453.19321	1095.94434	-469.59671	486.08142	837.31805	-578.97583	-58.30332	1396.32153	-637.50427	-172.92694	1084.78735	-837.48633	-147.76720	925.31842	-608.74194	277.48773	919.91034	-600.51459	-9.07920	924.95496	-379.24054	142.87755	922.35278	-786.48517	256.89624	628.72430	-758.98248	298.93600	490.91205	-811.80133	217.09247	267.61121	-788.15533	288.82141	82.09524	-730.27386	218.65984	53.32756	-929.46002	258.21085	90.03893	-572.99115	43.23222	585.28998	-439.09543	-1.28171	446.98422	-418.54987	78.19393	309.43307	-295.12183	25.42652	63.59429	-224.17805	83.07278	54.72578	-425.61075	21.08938	37.29076	-968.67365	243.70090	108.88222	-934.13165	222.92322	98.44319	-841.54846	192.50694	95.82059	-772.24036	189.85829	67.74995	-761.80939	262.87344	56.77135	-840.06134	288.13303	60.25867	-902.21198	296.37836	70.65606	-473.56763	41.87245	31.86995	-440.58844	60.13931	41.47760	-347.04965	109.00957	44.24656	-263.62585	113.14812	49.63910	-251.64531	41.33833	50.41342	-320.67056	9.23465	33.43596	-381.85806	-9.17876	36.25673	
444	3.692	-559.74121	156.89122	1699.99365	-684.87140	154.78990	1639.46777	-466.02264	150.65340	1611.21069	-545.68604	347.81174	1391.98157	-426.15720	72.55011	1251.55505	-439.44724	453.70798	1094.07324	-476.59634	486.52789	835.35394	-591.99976	-57.25867	1393.31641	-653.09857	-171.53790	1082.22290	-855.35370	-144.73892	926.03247	-621.27252	277.54883	916.84467	-612.27979	-8.70198	922.25018	-391.73462	143.68686	919.70105	-797.82837	255.88060	623.93835	-772.17310	297.74490	488.12115	-835.77563	218.59856	267.03458	-824.21350	286.91879	87.45671	-765.69324	221.77773	48.95731	-962.71844	261.16632	96.65051	-580.43121	42.19916	582.86652	-444.68036	-1.89516	446.29578	-422.91687	77.81620	308.58298	-295.34250	25.91853	65.09026	-224.95303	83.88145	57.15461	-425.45459	20.96229	37.26259	-1000.00610	247.69151	117.64886	-966.82214	225.69044	105.11837	-874.50958	195.43156	96.84204	-806.86060	193.18942	65.10796	-796.71454	266.89072	54.52722	-875.12689	292.15894	63.22419	-936.42059	299.87283	76.59235	-473.95850	41.32004	32.02242	-440.77640	59.91830	41.39114	-347.76489	109.32809	45.09751	-264.09491	113.79650	51.03540	-251.87627	41.94009	51.47039	-320.71848	9.34077	33.57002	-381.69098	-8.49164	35.78839																																																	-689.99335	139.30489	-17.16312	
